<svg width="133" height="42" viewBox="0 0 133 42" fill="none" xmlns="http://www.w3.org/2000/svg">
<path d="M132.9 29.9423C132.169 31.9078 130.977 33.3506 128.844 33.9151C125.749 34.7515 122.885 33.3296 121.651 30.235C122.613 29.775 123.596 29.3359 124.62 28.855C124.892 29.2523 125.143 29.6078 125.415 29.9632C126.063 30.7787 127.297 31.1132 128.238 30.7369C129.158 30.3605 129.513 29.1059 128.844 28.2696C128.488 27.8305 127.966 27.475 127.464 27.1823C126.628 26.7013 125.708 26.3459 124.85 25.865C122.843 24.7777 122.069 23.2095 122.487 21.1185C122.864 19.1321 124.62 17.5848 126.711 17.3757C129.032 17.1457 130.747 18.1703 131.792 20.4494C130.851 20.9513 129.91 21.474 128.928 21.9967C128.635 21.6622 128.405 21.3067 128.112 21.0349C127.443 20.4285 126.565 20.4494 126.084 21.0558C125.582 21.6622 125.708 22.3522 126.565 22.8958C127.38 23.4186 128.279 23.8158 129.158 24.2131C130.768 24.9659 132.189 25.8859 132.9 27.6214C132.9 28.4159 132.9 29.1896 132.9 29.9423Z" fill="#828282"/>
<path d="M18.693 0C24.7568 13.9048 30.6951 27.5168 36.6961 41.2752C36.257 41.317 35.9642 41.3798 35.6715 41.3798C32.5978 41.3798 29.545 41.3589 26.4713 41.4007C25.7395 41.4007 25.3213 41.2125 25.0704 40.4807C24.6731 39.3307 24.1504 38.2225 23.7322 37.0724C23.4813 36.3824 23.1258 36.2151 22.394 36.3824C15.2221 37.9924 8.05013 39.5607 0.878196 41.1498C0.648193 41.1916 0.418189 41.2125 0 41.2961C6.23101 27.4959 12.3993 13.8839 18.693 0Z" fill="#828282"/>
<path d="M46.7117 34.1242C50.8727 25.1541 54.9709 16.3512 59.1319 7.40194C63.1465 16.3512 67.0984 25.1331 71.113 34.1033C69.7748 34.1033 68.6039 34.1451 67.4538 34.0824C67.2029 34.0615 66.8893 33.7269 66.7638 33.476C66.0529 31.9287 65.3838 30.3605 64.7356 28.7923C64.5056 28.2277 64.2129 27.9977 63.5856 27.9977C60.491 28.0396 57.3964 28.0186 54.2809 27.9977C53.7163 27.9977 53.4236 28.1859 53.1936 28.7087C52.5036 30.2978 51.7927 31.8869 51.019 33.4342C50.8727 33.7478 50.3917 34.0406 50.0363 34.0615C48.9908 34.1869 47.9453 34.1242 46.7117 34.1242ZM62.8329 24.464C61.5783 21.5576 60.3655 18.7767 59.0483 15.7866C57.6682 18.7976 56.4137 21.5994 55.0964 24.464C57.7519 24.464 60.2192 24.464 62.8329 24.464Z" fill="#828282"/>
<path d="M78.5359 32.0333C78.5359 32.8278 78.5359 33.4133 78.5359 34.0615C77.3231 34.0615 76.194 34.0615 75.0022 34.0615C75.0022 25.1959 75.0022 16.3721 75.0022 7.46467C76.1522 7.46467 77.2813 7.46467 78.5149 7.46467C78.5149 11.4584 78.5149 15.4312 78.5149 19.5921C78.7868 19.4249 78.8913 19.3621 78.9749 19.2785C82.2995 15.933 88.6351 16.8321 90.5588 22.6867C91.5206 25.5931 91.2279 28.4996 89.4088 31.0714C86.9414 34.5424 82.4668 35.1488 79.1213 32.5142C78.9959 32.4096 78.8704 32.3051 78.5359 32.0333ZM78.3268 25.6977C78.3058 28.5832 79.895 30.6532 82.2786 30.8414C84.9341 31.0714 86.7951 29.545 87.276 26.7641C87.7569 24.1086 86.2933 21.3904 84.0769 20.7631C81.0032 19.9267 78.3268 22.2058 78.3268 25.6977Z" fill="#828282"/>
<path d="M102.143 25.6559C102.143 20.9931 105.781 17.3967 110.527 17.3757C115.336 17.3548 119.058 21.0558 119.037 25.8022C119.017 30.5487 115.316 34.1242 110.444 34.1242C105.697 34.1242 102.143 30.5069 102.143 25.6559ZM105.844 25.8441C105.906 29.5869 108.813 31.7823 112.221 30.6532C113.998 30.0678 114.939 28.7505 115.232 26.9941C115.566 25.0286 115.316 23.1467 113.685 21.7458C112.137 20.4076 110.318 20.2403 108.499 21.0767C106.513 21.9758 105.802 23.7322 105.844 25.8441Z" fill="#828282"/>
<path d="M98.3371 17.4385C98.3371 23.0004 98.3371 28.4787 98.3371 34.0406C97.1871 34.0406 96.0789 34.0406 94.8661 34.0406C94.8661 28.5205 94.8661 23.0213 94.8661 17.4385C96.0161 17.4385 97.1243 17.4385 98.3371 17.4385Z" fill="#828282"/>
<path d="M96.5807 13.9884C95.2634 13.9884 94.2179 12.9011 94.2388 11.5629C94.2598 10.2874 95.3261 9.24197 96.6016 9.26288C97.8562 9.26288 98.9435 10.3502 98.9644 11.5838C98.9853 12.9011 97.8771 14.0093 96.5807 13.9884Z" fill="#828282"/>
</svg>
