<svg width="161" height="24" viewBox="0 0 161 24" fill="none" xmlns="http://www.w3.org/2000/svg">
<path d="M21.8865 15.1143C21.8865 18.2069 18.5397 19.775 11.89 19.775C11.7139 19.775 11.4497 19.775 11.1854 19.775C10.8772 19.775 10.5689 19.775 10.1726 19.7314C10.1726 19.7314 10.1286 19.7314 10.0405 19.7314H8.41111C2.81838 19.7314 0 18.2069 0 15.1143V5.53176C0 4.66062 0.440372 4.2686 1.27708 4.2686C2.11379 4.2686 2.64223 4.31216 2.77434 4.39927C3.21472 4.5735 3.47894 4.96552 3.47894 5.57532V15.1579C3.47894 16.3339 5.10832 16.9002 8.41111 16.9002H13.5635C16.7782 16.9002 18.4075 16.3339 18.4075 15.2015V5.4882C18.4075 4.8784 18.6277 4.48639 19.1121 4.31216C19.2443 4.22505 19.7727 4.18149 20.6094 4.18149C21.4902 4.18149 21.8865 4.61706 21.8865 5.44465V15.1143Z" fill="#828282"/>
<path d="M29.2847 18.4682C29.2847 19.3394 28.8444 19.7314 28.0077 19.7314C27.171 19.7314 26.6865 19.6878 26.5544 19.6007C26.07 19.4265 25.8498 19.0345 25.8498 18.4247V1.30672C25.8498 0.479129 26.2902 0.0435572 27.1269 0.0435572C27.9196 0.0435572 28.404 0.0871143 28.6242 0.130672C29.0646 0.261343 29.3288 0.653358 29.3288 1.30672V18.4682H29.2847Z" fill="#828282"/>
<path d="M44.3455 5.92378C44.3455 6.75136 43.9051 7.18693 43.0684 7.18693H37.6078V18.4247C37.6078 19.2958 37.1674 19.6878 36.3307 19.6878C35.494 19.6878 35.0096 19.6443 34.8775 19.5572C34.3931 19.3829 34.1729 18.9909 34.1729 18.3811V7.18693C33.7325 7.18693 33.3362 7.18693 33.0719 7.14338C32.7637 7.14338 32.5875 7.09982 32.4554 7.09982C31.927 6.92559 31.6187 6.49002 31.6187 5.74955C31.6187 5.00907 31.8829 4.5735 32.4554 4.39927C32.5875 4.39927 32.7637 4.35572 33.0719 4.35572C33.3802 4.35572 33.7325 4.31216 34.1729 4.31216V1.26316C34.1729 0.435572 34.6132 0 35.4499 0C36.2867 0 36.7711 0.0435572 36.9032 0.130672C37.3876 0.3049 37.6078 0.653358 37.6078 1.26316V4.31216H43.0684C43.9051 4.35572 44.3455 4.8784 44.3455 5.92378Z" fill="#828282"/>
<path d="M55.3988 5.83666C55.3988 6.7078 54.8703 7.09982 53.8575 7.09982C53.7254 7.09982 53.5052 7.09982 53.241 7.05626C52.9767 7.0127 52.7566 7.0127 52.6245 7.0127C49.9822 7.0127 48.6611 7.66606 48.6611 8.97278V18.3811C48.6611 18.9909 48.4409 19.3829 47.9565 19.5572C47.7804 19.6007 47.2519 19.6443 46.4592 19.6443C45.6225 19.6443 45.2262 19.2087 45.2262 18.3376V9.01633C45.2262 6.96915 46.2831 5.61888 48.3969 4.8784C49.674 4.44283 51.6116 4.18149 54.1217 4.18149C55.0025 4.22505 55.3988 4.74773 55.3988 5.83666Z" fill="#828282"/>
<path d="M73.6742 12.5009C73.6742 12.2831 73.6742 12.0653 73.6742 11.9347H61.4319C60.7273 11.9347 59.9346 11.9347 59.0539 12.3267C58.2612 12.6751 57.7328 13.3285 57.7328 13.8512V15.1143C57.7328 15.6806 58.1291 16.3339 59.142 16.6388C59.8025 16.8566 60.6833 16.8566 61.564 16.8566H70.0191C71.2962 16.8566 72.177 16.726 72.6614 16.4646C73.3219 16.1162 73.6742 15.3757 73.6742 14.2432V12.5009ZM67.1567 7.0127C66.8925 7.0127 66.0998 7.0127 65.9677 7.0127C65.131 7.0127 64.6906 6.57713 64.6906 5.53176C64.6906 4.66062 65.131 4.2686 65.9677 4.2686C68.7421 4.2686 71.8687 4.44283 73.3219 4.83485C75.8321 5.53176 77.0651 7.31761 77.0651 9.45191V15.1143C77.0651 18.2069 74.7311 19.775 70.0191 19.775H61.608C59.8025 19.775 58.2172 19.4265 56.8961 18.7731C55.1346 17.9456 54.2538 16.7695 54.2538 15.245V13.677C54.2538 12.0653 55.0905 10.8457 56.808 10.0181C58.041 9.40835 59.6264 9.05989 61.52 9.05989H73.7183C73.7183 7.84029 72.6173 6.92559 69.4467 6.96915C68.8301 6.96915 67.9494 6.96915 67.1567 7.0127Z" fill="#828282"/>
<path d="M132.288 12.5009C132.288 12.2831 132.288 12.0653 132.288 11.9347H120.045C119.341 11.9347 118.548 11.9347 117.667 12.3267C116.875 12.6751 116.346 13.3285 116.346 13.8512V15.1143C116.346 15.6806 116.743 16.3339 117.755 16.6388C118.416 16.8566 119.297 16.8566 120.178 16.8566H128.677C129.954 16.8566 130.835 16.726 131.319 16.4646C131.979 16.1162 132.332 15.3757 132.332 14.2432V12.5009H132.288ZM125.77 7.0127C125.506 7.0127 124.713 7.0127 124.581 7.0127C123.745 7.0127 123.304 6.57713 123.304 5.53176C123.304 4.66062 123.745 4.2686 124.581 4.2686C127.356 4.2686 130.482 4.44283 131.935 4.83485C134.446 5.53176 135.679 7.31761 135.679 9.45191V15.1143C135.679 18.2069 133.345 19.775 128.633 19.775H120.222C118.416 19.775 116.831 19.4265 115.51 18.7731C113.748 17.9456 112.867 16.7695 112.867 15.245V13.677C112.867 12.0653 113.704 10.8457 115.422 10.0181C116.655 9.40835 118.24 9.05989 120.133 9.05989H132.332C132.332 7.84029 131.231 6.92559 128.06 6.96915C127.444 6.96915 126.563 6.96915 125.77 7.0127Z" fill="#828282"/>
<path d="M98.8195 14.853V8.84211C98.8195 8.01452 98.203 7.49183 96.9259 7.23049C96.3974 7.14338 95.4726 7.09982 94.0635 7.09982H88.6909C85.6524 7.09982 84.1111 7.70962 84.1111 8.92922V16.7695H94.8561C97.4984 16.7695 98.8195 16.1162 98.8195 14.853ZM102.298 14.8094C102.298 17.9891 99.8323 19.6007 94.8561 19.6007H84.1111V22.7368C84.1111 23.3466 83.8909 23.7387 83.4065 23.8693C83.2743 23.9564 82.7899 24 81.9532 24C81.1165 24 80.6761 23.5644 80.6761 22.7368V8.79855C80.6761 6.92559 81.6009 5.61888 83.4065 4.8784C84.4633 4.39927 86.1808 4.18149 88.5588 4.18149H94.0635C99.5681 4.18149 102.342 5.70599 102.342 8.75499V14.8094H102.298Z" fill="#828282"/>
<path d="M109.476 18.4682C109.476 19.3394 109.036 19.7314 108.199 19.7314C107.363 19.7314 106.878 19.6878 106.746 19.6007C106.262 19.4265 106.042 19.0345 106.042 18.4247V1.30672C106.042 0.479129 106.482 0.0435572 107.319 0.0435572C108.111 0.0435572 108.596 0.0871143 108.816 0.130672C109.256 0.261343 109.521 0.653358 109.521 1.30672V18.4682H109.476Z" fill="#828282"/>
<path d="M161 19.4701C161 21.5608 159.723 22.9546 157.125 23.608C156.156 23.8693 154.086 24 150.783 24C150.255 24 149.903 23.8258 149.726 23.5209C149.594 23.3031 149.506 22.9111 149.506 22.3013C149.506 21.4301 149.947 21.0381 150.783 21.0381H151.664C151.752 21.0381 151.84 21.0381 151.84 21.0381C152.06 21.0381 152.281 21.0381 152.457 21.0817C152.633 21.0817 152.765 21.0817 152.897 21.0817C155.98 21.0817 157.521 20.6025 157.521 19.5572H147.216C142.02 19.5572 139.422 18.0327 139.422 14.9401V5.4882C139.422 4.8784 139.642 4.48639 140.126 4.31216C140.258 4.22505 140.743 4.18149 141.624 4.18149C142.46 4.18149 142.901 4.61706 142.901 5.44465V14.8966C142.901 16.0726 144.354 16.6824 147.216 16.6824H157.521V5.4882C157.521 4.61706 157.961 4.22505 158.798 4.22505C159.635 4.22505 160.163 4.2686 160.295 4.35572C160.736 4.52995 161 4.92196 161 5.53176V19.4701Z" fill="#828282"/>
</svg>
