<svg width="111" height="33" viewBox="0 0 111 33" fill="none" xmlns="http://www.w3.org/2000/svg">
<path d="M19.085 26.4544H17.352V31.3522C17.3439 31.7964 17.1564 32.2193 16.8307 32.5282C16.505 32.8371 16.0677 33.0067 15.6146 32.9998H1.733C1.5084 33.0029 1.28538 32.9626 1.07668 32.8811C0.867989 32.7997 0.677721 32.6787 0.516764 32.525C0.355806 32.3714 0.227317 32.1882 0.138646 31.9858C0.0499744 31.7835 0.00286083 31.5659 0 31.3457V1.71829H0.0109684C0.0109684 1.70109 0.0109684 1.68603 0.0109684 1.66882C0.0161781 1.22554 0.200325 0.802353 0.523084 0.491925C0.845843 0.181498 1.28091 0.00913296 1.733 0.0125768H19.085C26.7475 0.0125768 32.96 5.92989 32.96 13.2303C32.96 20.5306 26.7409 26.4544 19.085 26.4544Z" fill="#828282"/>
<path d="M53.767 0.0115939C63.3446 0.0115939 71.097 7.39371 71.097 16.5031C71.097 25.6124 63.3336 32.9924 53.767 32.9924C44.2004 32.9924 36.415 25.6103 36.415 16.5031C36.415 7.39586 44.1872 0.0115939 53.767 0.0115939Z" fill="#828282"/>
<path d="M111 31.9493C110.998 32.0851 110.968 32.2192 110.913 32.3439C110.858 32.4686 110.778 32.5814 110.679 32.6759C110.579 32.7703 110.461 32.8446 110.332 32.8945C110.204 32.9444 110.066 32.969 109.927 32.9667H70.5903C70.545 32.9788 70.4988 32.9874 70.4521 32.9925C70.3124 32.9942 70.1737 32.9689 70.0439 32.918C69.9142 32.8672 69.7959 32.7918 69.6959 32.6961C69.5959 32.6004 69.5161 32.4864 69.461 32.3604C69.4059 32.2345 69.3767 32.0992 69.375 31.9622C69.3811 31.7483 69.4581 31.5421 69.5944 31.375L69.5746 31.3384L89.1071 0.809731H89.1488C89.201 0.580034 89.3314 0.374637 89.5187 0.22743C89.7059 0.080222 89.9387 0 90.1787 0C90.4187 0 90.6515 0.080222 90.8388 0.22743C91.026 0.374637 91.1565 0.580034 91.2087 0.809731H91.2525L110.996 31.5427L110.928 31.6309C110.97 31.7324 110.994 31.84 111 31.9493Z" fill="#828282"/>
</svg>
