<svg width="38" height="33" viewBox="0 0 38 33" fill="none" xmlns="http://www.w3.org/2000/svg">
  <path d="M35.1192 2.06143L34.9935 1.74294C34.9898 1.7338 34.9828 1.72625 34.9737 1.72218L34.6618 1.58062C32.0939 0.415048 28.4719 0.127455 25.2672 0H21.6578C21.617 0 21.6046 0.0550354 21.6412 0.0726188L29.0554 3.62477C29.0972 3.64473 29.0741 3.70692 29.0291 3.6952C25.6947 2.82497 22.3263 2.38449 19 2.38449C15.6845 2.38449 12.327 2.82229 9.00281 3.68695C8.95758 3.69868 8.93462 3.63579 8.97706 3.61622L16.6513 0.0730159C16.6885 0.0558299 16.6764 0.000198573 16.6353 0.000198573H12.7329C9.52837 0.127653 5.9061 0.415247 3.33833 1.58082L3.02639 1.72238C3.01735 1.72645 3.01019 1.7339 3.00661 1.74314L2.88096 2.06163C0.25305 8.71611 -0.493691 20.0131 0.302654 27.0903L0.344405 27.4614L0.639841 27.6904C4.74513 30.8717 10.2345 32.5074 13.6877 32.9414L14.1343 32.9975C14.2794 33.0158 14.4181 32.9319 14.4694 32.7951L16.717 26.7941C16.787 26.6071 16.6677 26.4028 16.4703 26.3718L15.7806 26.2636C13.3757 25.886 9.96834 24.885 7.08884 22.2753C7.0274 22.2196 7.08665 22.1194 7.16438 22.1482C7.39839 22.2352 7.65645 22.3359 7.92216 22.4396C8.57327 22.6938 9.24665 22.9567 9.68603 23.061C12.774 23.7947 15.9054 24.1669 18.9998 24.1669V24.1118H19.0063L19.0067 24.1669C22.0948 24.1669 25.2261 23.7948 28.3138 23.061C28.7534 22.9566 29.4268 22.6938 30.078 22.4395C30.3435 22.3358 30.6015 22.2351 30.8354 22.1482C30.9131 22.1194 30.9723 22.2197 30.9109 22.2753C28.041 24.8735 24.6294 25.8719 22.2191 26.2492L21.5296 26.357C21.3322 26.3879 21.2127 26.592 21.2827 26.779L23.5307 32.7948C23.5819 32.9317 23.7206 33.0157 23.8658 32.9974L24.3127 32.9413C27.7658 32.5073 33.2547 30.8716 37.3601 27.6903L37.6555 27.4613L37.6973 27.0902C38.4937 20.0131 37.747 8.71601 35.1192 2.06143ZM11.6642 18.3993C8.87259 18.6481 6.54359 16.3208 6.79221 13.531C6.98287 11.3925 8.70598 9.67028 10.846 9.47955C13.6376 9.23079 15.9666 11.5581 15.718 14.3479C15.5273 16.4864 13.8041 18.2086 11.6642 18.3993ZM27.1543 18.3993C24.3627 18.6481 22.0337 16.3208 22.2823 13.531C22.473 11.3925 24.1961 9.67028 26.3361 9.47955C29.1276 9.23079 31.4567 11.5581 31.2081 14.3479C31.0174 16.4864 29.2943 18.2086 27.1543 18.3993Z" fill="#2239FF"/>
</svg>
