<svg width="38" height="34" viewBox="0 0 38 34" fill="none" xmlns="http://www.w3.org/2000/svg">
  <path d="M0.671193 16.6402L9.42717 19.9082L12.8163 30.8075C13.0331 31.5056 13.8867 31.7636 14.4533 31.3004L19.334 27.3215C19.8456 26.9046 20.5744 26.8839 21.109 27.272L29.9121 33.6632C30.5182 34.1038 31.3769 33.7716 31.5289 33.0392L37.9776 2.01968C38.1435 1.21965 37.3575 0.552244 36.5957 0.846871L0.660933 14.7094C-0.225862 15.0514 -0.218135 16.3069 0.671193 16.6402ZM12.2701 18.1686L29.3825 7.62899C29.6901 7.44013 30.0065 7.85598 29.7424 8.10095L15.6197 21.2287C15.1232 21.6908 14.803 22.3092 14.7123 22.9804L14.2313 26.5455C14.1675 27.0216 13.4989 27.0688 13.3675 26.6081L11.5173 20.1069C11.3054 19.3654 11.6142 18.5734 12.2701 18.1686Z" fill="#2239FF"/>
</svg>
