<svg width="150" height="42" viewBox="0 0 150 42" fill="none" xmlns="http://www.w3.org/2000/svg">
<path fill-rule="evenodd" clip-rule="evenodd" d="M21.1412 37.1538C30.1227 37.1538 37.4036 29.9215 37.4036 21C37.4036 12.0785 30.1227 4.84615 21.1412 4.84615C12.1597 4.84615 4.87873 12.0785 4.87873 21C4.87873 29.9215 12.1597 37.1538 21.1412 37.1538ZM21.1412 42C32.8171 42 42.2824 32.598 42.2824 21C42.2824 9.40202 32.8171 0 21.1412 0C9.46523 0 0 9.40202 0 21C0 32.598 9.46523 42 21.1412 42Z" fill="#828282"/>
<path d="M65.8351 21.2488C66.8091 21.5184 67.5755 22.0101 68.1343 22.7238C68.6932 23.4216 68.9726 24.3098 68.9726 25.3883C68.9726 26.8315 68.4217 27.9417 67.32 28.7189C66.2343 29.496 64.6456 29.8846 62.5539 29.8846H54.5546V13.2315H62.0749C63.991 13.2315 65.4679 13.6121 66.5057 14.3734C67.5595 15.1347 68.0864 16.1894 68.0864 17.5375C68.0864 18.4098 67.8789 19.1632 67.4637 19.7976C67.0646 20.432 66.5217 20.9157 65.8351 21.2488ZM56.9496 15.1585V20.4875H61.8594C63.0888 20.4875 64.0309 20.2654 64.6855 19.8214C65.3561 19.3614 65.6914 18.6953 65.6914 17.823C65.6914 16.9507 65.3561 16.2925 64.6855 15.8484C64.0309 15.3884 63.0888 15.1585 61.8594 15.1585H56.9496ZM62.4581 27.9576C63.8153 27.9576 64.8372 27.7356 65.5238 27.2915C66.2103 26.8474 66.5536 26.1496 66.5536 25.1979C66.5536 23.3423 65.1885 22.4145 62.4581 22.4145H56.9496V27.9576H62.4581Z" fill="#828282"/>
<path d="M83.5782 17.2758L77.4231 31.1455C76.8802 32.4302 76.2415 33.3342 75.507 33.8576C74.7885 34.381 73.9184 34.6427 72.8965 34.6427C72.2738 34.6427 71.667 34.5396 71.0763 34.3334C70.5015 34.1431 70.0225 33.8576 69.6393 33.4769L70.6212 31.764C71.2759 32.3826 72.0343 32.6919 72.8965 32.6919C73.4553 32.6919 73.9184 32.5412 74.2856 32.2398C74.6688 31.9544 75.0121 31.4548 75.3154 30.7411L75.7226 29.8608L70.1183 17.2758H72.5133L76.9441 27.3629L81.3269 17.2758H83.5782Z" fill="#828282"/>
<path d="M93.212 29.1471C92.8767 29.4326 92.4616 29.6546 91.9666 29.8132C91.4716 29.956 90.9607 30.0274 90.4338 30.0274C89.1564 30.0274 88.1665 29.6864 87.464 29.0044C86.7614 28.3224 86.4102 27.347 86.4102 26.0782V19.1552H84.2547V17.2758H86.4102V14.5161H88.7094V17.2758H92.3498V19.1552H88.7094V25.983C88.7094 26.665 88.877 27.1884 89.2123 27.5532C89.5636 27.918 90.0586 28.1003 90.6972 28.1003C91.3998 28.1003 91.9985 27.9021 92.4935 27.5056L93.212 29.1471Z" fill="#828282"/>
<path d="M107.043 23.6516C107.043 23.826 107.027 24.056 106.995 24.3415H96.6964C96.8401 25.4517 97.3271 26.3478 98.1573 27.0298C99.0036 27.6959 100.049 28.029 101.295 28.029C102.812 28.029 104.033 27.5215 104.959 26.5064L106.229 27.9814C105.654 28.6475 104.935 29.155 104.073 29.504C103.227 29.8529 102.277 30.0274 101.223 30.0274C99.8817 30.0274 98.6922 29.7577 97.6544 29.2185C96.6165 28.6634 95.8102 27.8942 95.2354 26.9108C94.6766 25.9275 94.3972 24.8173 94.3972 23.5802C94.3972 22.359 94.6686 21.2567 95.2115 20.2734C95.7703 19.29 96.5287 18.5288 97.4867 17.9895C98.4607 17.4344 99.5544 17.1569 100.768 17.1569C101.981 17.1569 103.059 17.4344 104.001 17.9895C104.959 18.5288 105.702 19.29 106.229 20.2734C106.771 21.2567 107.043 22.3828 107.043 23.6516ZM100.768 19.0839C99.6662 19.0839 98.7401 19.4169 97.9897 20.083C97.2552 20.7492 96.8241 21.6215 96.6964 22.7H104.839C104.712 21.6373 104.273 20.773 103.522 20.1068C102.788 19.4249 101.87 19.0839 100.768 19.0839Z" fill="#828282"/>
<path d="M116.966 17.1569C118.195 17.1569 119.297 17.4265 120.271 17.9657C121.245 18.505 122.003 19.2583 122.546 20.2258C123.105 21.1933 123.384 22.3114 123.384 23.5802C123.384 24.849 123.105 25.9751 122.546 26.9584C122.003 27.9259 121.245 28.6792 120.271 29.2185C119.297 29.7577 118.195 30.0274 116.966 30.0274C116.023 30.0274 115.161 29.845 114.379 29.4802C113.597 29.1154 112.95 28.5841 112.439 27.8862V29.8846H110.236V12.2323H112.535V19.179C113.046 18.5129 113.684 18.0133 114.451 17.6802C115.217 17.3313 116.055 17.1569 116.966 17.1569ZM116.774 28.029C117.588 28.029 118.315 27.8466 118.953 27.4818C119.608 27.1012 120.119 26.5778 120.486 25.9116C120.869 25.2297 121.061 24.4525 121.061 23.5802C121.061 22.7079 120.869 21.9387 120.486 21.2726C120.119 20.5906 119.608 20.0672 118.953 19.7024C118.315 19.3376 117.588 19.1552 116.774 19.1552C115.976 19.1552 115.249 19.3376 114.594 19.7024C113.94 20.0672 113.429 20.5906 113.062 21.2726C112.694 21.9387 112.511 22.7079 112.511 23.5802C112.511 24.4525 112.694 25.2297 113.062 25.9116C113.429 26.5778 113.94 27.1012 114.594 27.4818C115.249 27.8466 115.976 28.029 116.774 28.029Z" fill="#828282"/>
<path d="M131.066 17.1569C132.823 17.1569 134.164 17.5851 135.09 18.4415C136.032 19.298 136.503 20.5747 136.503 22.2717V29.8846H134.324V28.2193C133.94 28.8061 133.39 29.2581 132.671 29.5753C131.968 29.8767 131.13 30.0274 130.156 30.0274C128.735 30.0274 127.594 29.6864 126.731 29.0044C125.885 28.3224 125.462 27.4263 125.462 26.3161C125.462 25.2059 125.869 24.3177 126.683 23.6516C127.498 22.9696 128.791 22.6286 130.563 22.6286H134.204V22.1766C134.204 21.1933 133.916 20.4399 133.342 19.9165C132.767 19.3931 131.921 19.1314 130.803 19.1314C130.052 19.1314 129.318 19.2583 128.599 19.5121C127.881 19.75 127.274 20.0751 126.779 20.4875L125.821 18.7746C126.476 18.2512 127.258 17.8547 128.168 17.5851C129.078 17.2996 130.044 17.1569 131.066 17.1569ZM130.539 28.2669C131.418 28.2669 132.176 28.0766 132.815 27.6959C133.453 27.2994 133.916 26.7443 134.204 26.0306V24.2701H130.659C128.711 24.2701 127.737 24.9204 127.737 26.2209C127.737 26.8553 127.985 27.3549 128.48 27.7197C128.975 28.0845 129.661 28.2669 130.539 28.2669Z" fill="#828282"/>
<path d="M140.758 12.2323H143.057V29.8846H140.758V12.2323Z" fill="#828282"/>
<path d="M147.447 12.2323H149.746V29.8846H147.447V12.2323Z" fill="#828282"/>
</svg>
