<svg width="185" height="32" viewBox="0 0 185 32" fill="none" xmlns="http://www.w3.org/2000/svg">
<path d="M59.5646 12.0413H50.2232V3.08462H46.6424V24.9302H50.2232V15.4742H59.5646V24.9302H63.1455V3.08462H59.5646V12.0413Z" fill="#828282"/>
<path d="M73.7923 20.6547L69.1527 9.32621H65.4784L72.0797 24.6493L71.924 24.9614C71.0833 27.1147 69.9 28.1446 67.7826 28.0198V31.1718C71.3635 31.3902 73.8857 29.4553 75.3803 25.4295L81.3588 9.32621H77.7779L73.7923 20.6547Z" fill="#828282"/>
<path d="M92.2736 8.9205C89.9072 8.9205 88.1011 9.79432 86.8245 11.5732V9.32621H83.4616V31.1718H86.8245V22.7144C88.1011 24.4621 89.9072 25.3359 92.2736 25.3359C94.4222 25.3359 96.2282 24.5557 97.7539 22.9641C99.2797 21.3725 100.027 19.4376 100.027 17.1282C100.027 14.85 99.2797 12.9151 97.7539 11.3235C96.2282 9.73191 94.4222 8.9205 92.2736 8.9205ZM88.2257 20.7171C87.2915 19.7497 86.8245 18.5638 86.8245 17.1282C86.8245 15.6926 87.2915 14.5067 88.2257 13.5705C89.1598 12.603 90.3431 12.1349 91.7443 12.1349C93.1455 12.1349 94.3287 12.603 95.2629 13.5705C96.197 14.5067 96.6641 15.6926 96.6641 17.1282C96.6641 18.5638 96.197 19.7497 95.2629 20.7171C94.3287 21.6533 93.1455 22.1215 91.7443 22.1215C90.3431 22.1215 89.1598 21.6533 88.2257 20.7171Z" fill="#828282"/>
<path d="M118.115 18.5638C118.208 17.9708 118.239 17.5027 118.239 17.1594C118.239 14.8812 117.492 12.9151 116.028 11.3235C114.565 9.73191 112.697 8.9205 110.423 8.9205C108.026 8.9205 106.033 9.7007 104.507 11.2923C102.981 12.8527 102.203 14.7876 102.203 17.1282C102.203 19.5 102.981 21.4661 104.538 23.0265C106.095 24.5557 108.15 25.3359 110.673 25.3359C113.693 25.3359 115.966 24.2124 117.492 21.9342L114.72 20.3114C113.817 21.5909 112.479 22.2463 110.704 22.2463C108.119 22.2463 106.22 20.9356 105.722 18.5638H118.115ZM105.69 15.8175C106.158 13.4457 107.901 11.9789 110.392 11.9789C112.603 11.9789 114.378 13.2896 114.845 15.8175H105.69Z" fill="#828282"/>
<path d="M124.561 9.32621H121.198V24.9302H124.561V17.0658C124.561 15.4742 125.028 14.3195 125.993 13.6329C126.959 12.9151 128.08 12.603 129.356 12.6967V9.04533C127.021 9.04533 125.402 10.0128 124.561 11.9477V9.32621Z" fill="#828282"/>
<path d="M135.204 24.9302V2.14838H131.841V24.9302H135.204Z" fill="#828282"/>
<path d="M146.457 25.3359C148.761 25.3359 150.692 24.5557 152.28 22.9641C153.868 21.3725 154.678 19.4376 154.678 17.1282C154.678 14.8188 153.868 12.8839 152.28 11.2923C150.692 9.7007 148.761 8.9205 146.457 8.9205C144.184 8.9205 142.222 9.7007 140.634 11.2923C139.046 12.8839 138.237 14.8188 138.237 17.1282C138.237 19.4376 139.046 21.3725 140.634 22.9641C142.222 24.5557 144.184 25.3359 146.457 25.3359ZM143.001 20.6547C142.067 19.7184 141.6 18.5325 141.6 17.1282C141.6 15.7238 142.067 14.5379 143.001 13.6017C143.935 12.6655 145.087 12.1973 146.457 12.1973C147.827 12.1973 148.979 12.6655 149.913 13.6017C150.848 14.5379 151.315 15.7238 151.315 17.1282C151.315 18.5325 150.848 19.7184 149.913 20.6547C148.979 21.5909 147.827 22.059 146.457 22.059C145.087 22.059 143.935 21.5909 143.001 20.6547Z" fill="#828282"/>
<path d="M165.067 25.3359C167.371 25.3359 169.302 24.5557 170.89 22.9641C172.478 21.3725 173.287 19.4376 173.287 17.1282C173.287 14.8188 172.478 12.8839 170.89 11.2923C169.302 9.7007 167.371 8.9205 165.067 8.9205C162.794 8.9205 160.832 9.7007 159.244 11.2923C157.656 12.8839 156.847 14.8188 156.847 17.1282C156.847 19.4376 157.656 21.3725 159.244 22.9641C160.832 24.5557 162.794 25.3359 165.067 25.3359ZM161.611 20.6547C160.676 19.7184 160.209 18.5325 160.209 17.1282C160.209 15.7238 160.676 14.5379 161.611 13.6017C162.545 12.6655 163.697 12.1973 165.067 12.1973C166.437 12.1973 167.589 12.6655 168.523 13.6017C169.457 14.5379 169.924 15.7238 169.924 17.1282C169.924 18.5325 169.457 19.7184 168.523 20.6547C167.589 21.5909 166.437 22.059 165.067 22.059C163.697 22.059 162.545 21.5909 161.611 20.6547Z" fill="#828282"/>
<path d="M184.712 9.32621H180.851V4.95709L177.488 5.95575V9.32621H174.623V12.5718H177.488V20.0617C177.488 24.15 179.574 25.5543 184.712 24.9302V21.903C182.158 22.0278 180.851 22.059 180.851 20.0617V12.5718H184.712V9.32621Z" fill="#828282"/>
<path d="M30.9347 18.3719C28.2128 18.3719 26.0353 20.5802 26.0353 23.2823C26.0353 26.0102 28.2387 28.1926 30.9347 28.1926C33.6566 28.1926 35.8341 25.9843 35.8341 23.2823C35.8341 20.5802 33.6566 18.3719 30.9347 18.3719Z" fill="#828282"/>
<path d="M28.8609 12.2144C28.7054 11.2531 28.161 10.3698 27.3055 9.77221C25.5946 8.57709 23.2357 8.99279 22.0432 10.7075L16.8587 18.138C16.4699 18.7096 15.6922 18.8395 15.1219 18.4498C14.5516 18.0341 14.422 17.2547 14.8108 16.6831L22.1469 6.08293C22.7432 5.22556 22.9505 4.21231 22.7691 3.25102C22.6135 2.28973 22.0692 1.40638 21.2137 0.80882C19.5028 -0.386299 17.1439 0.0293939 15.9514 1.74413L1.66807 22.269C1.07185 23.1264 0.864474 24.1396 1.04593 25.1009C1.22739 26.0622 1.74584 26.9456 2.60129 27.5431C4.31218 28.7382 6.67114 28.3225 7.86358 26.6078L11.9334 20.8141C12.3223 20.2425 13.1259 20.1126 13.6702 20.5023C14.2405 20.892 14.3702 21.6714 13.9813 22.243C13.3851 23.1004 13.1777 24.1136 13.3592 25.0749C13.5406 26.0362 14.0591 26.9196 14.9145 27.5171C16.6254 28.7123 18.9844 28.2966 20.1768 26.5818L28.2388 15.0203C28.835 14.189 29.0424 13.1497 28.8609 12.2144Z" fill="#828282"/>
</svg>
