<svg width="160" height="48" viewBox="0 0 160 48" fill="none" xmlns="http://www.w3.org/2000/svg">
<path d="M71.4583 15.5586C70.6667 14.8138 69.75 14.2345 68.6667 13.8207C67.5833 13.4069 66.375 13.2 65.0833 13.2414C63.7917 13.2414 62.625 13.4483 61.5417 13.8621C60.4583 14.2759 59.5417 14.8552 58.75 15.6C58 16.3448 57.375 17.2966 56.9583 18.3724C56.5 19.4483 56.2917 20.6483 56.2917 21.9724C56.2917 23.2552 56.5 24.4552 56.9583 25.4897C57.4167 26.5655 58 27.4759 58.75 28.2207C59.5417 28.9655 60.4583 29.5448 61.5417 29.9586C62.625 30.3724 63.7917 30.5793 65.0833 30.5793C66.375 30.5793 67.5833 30.331 68.6667 29.9172C69.75 29.4621 70.6667 28.8828 71.4583 28.0966C72.25 27.3517 72.8333 26.4 73.2917 25.3655C73.75 24.2897 73.9583 23.131 73.9583 21.8483C73.9583 20.5241 73.75 19.3241 73.2917 18.2483C72.875 17.2552 72.25 16.3034 71.4583 15.5586ZM70.4167 24.2897C70.1667 25.0345 69.75 25.6966 69.25 26.2345C68.75 26.7724 68.125 27.2276 67.4583 27.5172C66.75 27.8483 65.9583 27.9724 65.125 27.9724C64.25 27.9724 63.4583 27.8069 62.7917 27.5172C62.0833 27.1862 61.5 26.7724 61 26.2345C60.5 25.6966 60.125 25.0345 59.8333 24.2897C59.5833 23.5448 59.4167 22.7172 59.4167 21.8483C59.4167 21.0207 59.5417 20.2345 59.8333 19.531C60.125 18.8276 60.5 18.2069 61 17.669C61.5 17.131 62.0833 16.7172 62.7917 16.3862C63.5 16.0552 64.2917 15.931 65.125 15.931C66 15.931 66.7917 16.0966 67.4583 16.3862C68.1667 16.6759 68.75 17.0897 69.25 17.669C69.75 18.2069 70.125 18.8276 70.4167 19.531C70.7083 20.2345 70.8333 21.0207 70.8333 21.8483C70.875 22.7172 70.7083 23.5448 70.4167 24.2897Z" fill="#828282"/>
<path d="M88.0833 20.4414C87.5833 19.9035 87 19.4897 86.3333 19.2C85.625 18.869 84.875 18.7448 84 18.7448C83.2083 18.7448 82.4583 18.9103 81.75 19.2C81.0417 19.4897 80.5 20.0276 80.0833 20.6897H80.0417V18.9931H77.375V35.5448H80.2083V28.8H80.2917C80.4167 29.0069 80.625 29.1724 80.8333 29.3793C81.0417 29.5862 81.3333 29.7517 81.625 29.9172C81.9583 30.0828 82.2917 30.2483 82.7083 30.331C83.125 30.4138 83.5833 30.4966 84.125 30.4966C84.9167 30.4966 85.6667 30.331 86.3333 30.0414C87 29.7103 87.5833 29.2966 88.0417 28.7586C88.5417 28.2207 88.9167 27.6 89.1667 26.8966C89.4167 26.1931 89.5833 25.4069 89.5833 24.5793C89.5833 23.7517 89.4583 22.9655 89.2083 22.2621C88.9167 21.5586 88.5417 20.9379 88.0833 20.4414ZM86.5 25.8621C86.375 26.2759 86.125 26.6069 85.8333 26.9379C85.5417 27.269 85.2083 27.5172 84.7917 27.6828C84.375 27.8897 83.9167 27.9724 83.4167 27.9724C82.9167 27.9724 82.4167 27.8897 82.0417 27.6828C81.625 27.4759 81.2917 27.2276 81 26.9379C80.7083 26.6069 80.5 26.2759 80.3333 25.8621C80.2083 25.4483 80.125 25.0345 80.125 24.5793C80.125 24.1241 80.2083 23.7103 80.3333 23.2966C80.5 22.8828 80.7083 22.5517 81 22.2207C81.2917 21.8897 81.6667 21.6414 82.0417 21.4759C82.4583 21.269 82.9167 21.1862 83.4167 21.1862C83.9167 21.1862 84.4167 21.269 84.7917 21.4759C85.2083 21.6828 85.5417 21.931 85.8333 22.2207C86.125 22.5517 86.3333 22.8828 86.5 23.2966C86.6667 23.7103 86.75 24.1241 86.75 24.5793C86.7083 25.0345 86.6667 25.4897 86.5 25.8621Z" fill="#828282"/>
<path d="M102.417 20.3172C101.958 19.8207 101.417 19.4069 100.75 19.1586C100.125 18.869 99.375 18.7448 98.625 18.7448C97.7917 18.7448 96.9583 18.869 96.2083 19.1586C95.4583 19.4483 94.7917 19.8207 94.25 20.3586C93.7083 20.8552 93.25 21.5172 92.9167 22.2207C92.5833 22.9241 92.4583 23.7517 92.4583 24.6207C92.4583 25.4897 92.625 26.3172 92.9167 27.0621C93.25 27.7655 93.6667 28.3862 94.25 28.9241C94.7917 29.4207 95.4583 29.8345 96.2083 30.1241C96.9583 30.4138 97.75 30.5379 98.625 30.5379C99.5 30.5379 100.375 30.3724 101.208 30.0414C102.042 29.7103 102.75 29.131 103.417 28.3034L101.375 26.7724C101 27.2276 100.583 27.5586 100.125 27.8897C99.6667 28.1793 99.0833 28.3034 98.375 28.3034C97.5833 28.3034 96.875 28.0552 96.3333 27.6C95.75 27.1448 95.4583 26.4828 95.3333 25.6552H103.958V24.8276C103.958 23.8345 103.833 22.9655 103.542 22.2207C103.25 21.4759 102.875 20.8138 102.417 20.3172ZM95.2917 23.5034C95.4167 22.6759 95.7083 22.0552 96.1667 21.5586C96.6667 21.0621 97.3333 20.8138 98.2083 20.8138C99.0833 20.8138 99.7917 21.0621 100.292 21.5586C100.792 22.0138 101.042 22.6759 101.083 23.5034H95.2917Z" fill="#828282"/>
<path d="M116.75 20.069C116.417 19.6552 116 19.3241 115.458 19.0759C114.958 18.8276 114.292 18.7034 113.542 18.7034C112.583 18.7034 111.875 18.9103 111.292 19.3241C110.75 19.7379 110.333 20.1931 110.083 20.7724H110.042V18.9517H107.375V30.2069H110.208V24.0828C110.208 23.7103 110.25 23.3379 110.333 23.0069C110.417 22.6759 110.583 22.3448 110.792 22.0966C111 21.8483 111.292 21.6414 111.583 21.4759C111.917 21.3103 112.292 21.2276 112.792 21.2276C113.292 21.2276 113.667 21.3517 113.958 21.5586C114.25 21.7655 114.458 22.0552 114.583 22.3862C114.708 22.7172 114.792 23.0897 114.833 23.4621C114.875 23.8345 114.875 24.1655 114.875 24.4966V30.2069H117.708V23.131C117.708 22.5517 117.625 22.0138 117.5 21.4759C117.333 20.9379 117.083 20.4828 116.75 20.069Z" fill="#828282"/>
<path d="M130.333 21.5586C129.75 21.1862 129.125 20.9379 128.417 20.731C127.708 20.5241 127.083 20.3172 126.5 20.1103C125.917 19.9034 125.417 19.6552 125.042 19.3241C124.667 18.9931 124.458 18.5793 124.458 18.0414C124.458 17.669 124.542 17.3379 124.708 17.0897C124.875 16.8 125.083 16.5931 125.333 16.4276C125.583 16.2621 125.875 16.1379 126.208 16.0552C126.542 15.9724 126.875 15.931 127.208 15.931C127.792 15.931 128.333 16.0552 128.875 16.2621C129.417 16.469 129.833 16.8 130.125 17.2552L132.292 14.9793C131.625 14.3586 130.875 13.9448 130.042 13.6552C129.208 13.4069 128.375 13.2414 127.5 13.2414C126.75 13.2414 125.958 13.3241 125.25 13.531C124.5 13.7379 123.875 14.0276 123.292 14.4828C122.708 14.8966 122.25 15.3931 121.917 16.0138C121.583 16.6345 121.417 17.3793 121.417 18.2483C121.417 19.2414 121.625 20.0276 122 20.6069C122.375 21.1862 122.875 21.6414 123.458 22.0138C124.042 22.3448 124.667 22.6345 125.375 22.8414C126.083 23.0483 126.708 23.2552 127.292 23.5034C127.875 23.7103 128.375 24 128.75 24.331C129.125 24.6621 129.333 25.1172 129.333 25.7379C129.333 26.1103 129.25 26.4414 129.083 26.731C128.917 27.0207 128.667 27.2276 128.417 27.4345C128.125 27.6414 127.833 27.7655 127.458 27.8483C127.125 27.931 126.75 27.9724 126.417 27.9724C125.75 27.9724 125.125 27.8069 124.542 27.5172C123.958 27.1862 123.5 26.7724 123.125 26.2345L120.875 28.3862C121.583 29.2138 122.375 29.7931 123.333 30.1241C124.292 30.4552 125.292 30.6207 126.333 30.6207C127.167 30.6207 127.917 30.4966 128.667 30.2897C129.417 30.0828 130.042 29.7517 130.583 29.2966C131.167 28.8414 131.583 28.3035 131.917 27.6414C132.25 26.9793 132.417 26.1931 132.417 25.2828C132.417 24.2897 132.208 23.5034 131.833 22.9241C131.417 22.3862 130.917 21.931 130.333 21.5586Z" fill="#828282"/>
<path d="M145.458 20.3172C145 19.8207 144.458 19.4069 143.792 19.1586C143.167 18.869 142.417 18.7448 141.667 18.7448C140.833 18.7448 140.042 18.869 139.25 19.1586C138.5 19.4483 137.833 19.8207 137.292 20.3586C136.75 20.8552 136.292 21.5172 135.958 22.2207C135.625 22.9241 135.5 23.7517 135.5 24.6207C135.5 25.4897 135.667 26.3172 135.958 27.0621C136.292 27.7655 136.708 28.3862 137.292 28.9241C137.833 29.4207 138.5 29.8345 139.25 30.1241C140 30.4138 140.792 30.5379 141.667 30.5379C142.542 30.5379 143.417 30.3724 144.25 30.0414C145.083 29.7103 145.792 29.131 146.458 28.3034L144.417 26.7724C144.042 27.2276 143.625 27.5586 143.167 27.8897C142.708 28.1793 142.125 28.3034 141.417 28.3034C140.625 28.3034 139.917 28.0552 139.375 27.6C138.792 27.1448 138.5 26.4828 138.375 25.6552H147V24.8276C147 23.8345 146.875 22.9655 146.583 22.2207C146.292 21.4759 145.917 20.8138 145.458 20.3172ZM138.333 23.5034C138.458 22.6759 138.75 22.0552 139.208 21.5586C139.708 21.0621 140.375 20.8138 141.25 20.8138C142.125 20.8138 142.833 21.0621 143.333 21.5586C143.833 22.0138 144.083 22.6759 144.125 23.5034H138.333Z" fill="#828282"/>
<path d="M159.958 22.8414C159.958 22.469 159.875 22.0966 159.792 21.7241C159.708 21.3517 159.583 20.9793 159.375 20.6069C159.167 20.2345 158.917 19.9034 158.542 19.6138C158.167 19.3241 157.708 19.1172 157.167 18.9517C156.625 18.7448 155.958 18.6621 155.125 18.6621C154.25 18.6621 153.375 18.7862 152.5 19.0759C151.667 19.3655 150.958 19.8207 150.292 20.4414L151.792 21.931C152.167 21.5586 152.625 21.3103 153.125 21.1034C153.625 20.8966 154.208 20.7724 154.792 20.7724C155.542 20.7724 156.167 20.9379 156.667 21.3103C157.167 21.6414 157.417 22.1793 157.417 22.8828V23.1724H156.708C156.25 23.1724 155.75 23.1724 155.208 23.2138C154.667 23.2138 154.125 23.2966 153.625 23.3793C153.125 23.4621 152.625 23.5862 152.125 23.7517C151.625 23.9172 151.208 24.1655 150.833 24.4552C150.458 24.7448 150.167 25.0759 149.958 25.531C149.75 25.9448 149.625 26.4828 149.625 27.0621C149.625 27.6414 149.75 28.0966 149.958 28.5517C150.208 28.9655 150.5 29.3379 150.875 29.5862C151.25 29.8759 151.708 30.0828 152.208 30.2069C152.708 30.331 153.208 30.4138 153.75 30.4138C154.5 30.4138 155.208 30.2897 155.833 30C156.458 29.7103 156.958 29.2552 157.375 28.5931H157.458V30.2069H160V23.7517C160 23.5035 160 23.2138 159.958 22.8414ZM157.292 25.8207C157.292 26.6069 157.042 27.2276 156.583 27.7241C156.125 28.1793 155.417 28.3862 154.458 28.3862C154.208 28.3862 154 28.3448 153.75 28.3034C153.5 28.2207 153.292 28.1379 153.125 28.0138C152.917 27.8897 152.792 27.7241 152.667 27.5586C152.542 27.3517 152.5 27.1448 152.5 26.8966C152.5 26.4828 152.667 26.1931 152.958 25.9448C153.25 25.6966 153.625 25.531 154.042 25.4483C154.5 25.3241 154.958 25.2414 155.417 25.2C155.917 25.1586 156.333 25.1586 156.75 25.1586H157.333V25.8207H157.292Z" fill="#828282"/>
<path d="M24.1667 0C10.8333 0 0 10.7586 0 24C0 37.2414 10.8333 48 24.1667 48C37.5 48 48.3333 37.2414 48.3333 24C48.3333 10.7586 37.5 0 24.1667 0ZM24.0833 41.4621C14.4583 41.4621 6.66667 33.7241 6.66667 24.1241C6.66667 14.5241 14.4583 6.78621 24.0833 6.78621C33.7083 6.78621 41.5 14.5241 41.5 24.1241C41.5 33.7241 33.6667 41.4621 24.0833 41.4621Z" fill="#828282"/>
<path d="M23.7917 15.5586L23.8333 16.469L25 16.6345V15.5586C24.9167 15.6 24.7917 15.6414 24.7083 15.6828C24.7917 15.6414 24.875 15.6414 24.9583 15.5586C25.2917 15.3517 25.5417 14.9793 25.5417 14.5241C25.5417 13.8621 25.0417 13.3655 24.375 13.3655C23.7083 13.3655 23.2083 13.9034 23.2083 14.5241C23.2083 14.9793 23.4583 15.3517 23.7917 15.5586Z" fill="#828282"/>
<path d="M16.5417 26.1931H21.2917C21.375 26.1931 21.4167 26.1517 21.4167 26.069V20.9793C21.4167 20.9379 21.375 20.8966 21.3333 20.8552L19 19.7793C18.9167 19.7379 18.8333 19.7793 18.8333 19.8621L16.4167 26.0276C16.375 26.1103 16.4583 26.1931 16.5417 26.1931Z" fill="#828282"/>
<path d="M22.8333 22.2207C22.9167 25.1172 22.4583 26.4828 22.25 26.9379C22.2083 27.0207 22.2917 27.0207 22.375 26.9793C22.3333 27.0207 22.3333 27.1034 22.4167 27.1034C22.7083 27.0621 23.25 26.9793 23.875 26.9379C24.25 26.9379 24.625 26.9379 25.0417 26.9379C25.25 26.9379 25.4167 26.9793 25.625 27.0207C27.0833 27.2276 27.75 27.931 28 28.1793C28.0417 28.2207 28.125 28.2207 28.1667 28.1793C28.5417 27.8897 30 27.4759 30 23.3379C30 19.531 27.0833 16.9655 26.75 16.8414L25 16.6345L23.8333 16.469L21.3333 16.1379C21.2083 16.1379 21.125 16.2621 21.2083 16.3448C21.625 17.0069 22.75 19.0759 22.8333 22.2207ZM23.375 26.1517L23.4167 26.1103C23.4167 26.1103 23.4167 26.1517 23.375 26.1517ZM24.125 25.4897C24.0833 25.531 24.0833 25.531 24.0417 25.5724C24.125 25.4897 24.1667 25.4483 24.25 25.3655C24.2083 25.4069 24.2083 25.4069 24.1667 25.4483C24.1667 25.4483 24.1667 25.4483 24.125 25.4897Z" fill="#828282"/>
<path d="M34.8333 27.1034L34.5417 27.2276C33.125 27.931 31.5417 28.2621 29.9583 28.2621C29.875 28.2621 29.8333 28.3034 29.8333 28.3448C29.6667 29.0897 29.0417 29.6276 28.25 29.6276H25V26.9379C24.5833 26.8966 24.1667 26.8966 23.8333 26.9379V29.6276H21.125C20.2083 29.6276 19.5 28.8828 19.5 28.0138V27.3931C19.5 27.3103 19.4583 27.269 19.375 27.269H14.2917C14.2083 27.269 14.1667 27.3103 14.1667 27.3931C14.1667 27.5172 14.1667 27.6414 14.1667 27.7655C14.1667 29.6276 14.7083 31.3241 15.6667 32.8138C15.8333 33.0621 16.125 33.1862 16.375 33.0621L16.9167 32.8138C17.3333 32.6069 17.8333 32.6069 18.2917 32.8138L18.875 33.0621C19.2917 33.269 19.7917 33.269 20.25 33.0621L20.8333 32.8138C21.2917 32.6069 21.75 32.6069 22.2083 32.8138L22.7917 33.0621C23.25 33.269 23.7083 33.269 24.1667 33.0621L24.75 32.8138C25.2083 32.6069 25.6667 32.6069 26.125 32.8138L26.7083 33.0621C27.1667 33.269 27.625 33.269 28.0833 33.0621L28.6667 32.8138C29.125 32.6069 29.5833 32.6069 30.0417 32.8138L30.625 33.0621C31 33.2276 31.4167 33.0207 31.625 32.6483C31.9583 32.1103 32.25 31.531 32.4583 30.9103C32.9167 29.5448 33.75 28.2621 35.0417 27.6414C35.1667 27.6 35.2083 27.4759 35.2083 27.3517C35.2083 27.269 35.1667 27.1448 35.0833 27.1034C35.0417 27.0621 34.9167 27.0621 34.8333 27.1034Z" fill="#828282"/>
</svg>
