<svg width="113" height="54" viewBox="0 0 113 54" fill="none" xmlns="http://www.w3.org/2000/svg">
<path fill-rule="evenodd" clip-rule="evenodd" d="M22.2777 0.417479C23.0004 -0.13916 24.0104 -0.13916 24.733 0.417479C32.4436 6.35639 41.2524 6.3085 44.5783 6.29041C44.7447 6.2895 44.8977 6.28865 45.0358 6.28865C45.5733 6.28865 46.088 6.5031 46.4647 6.88387C46.8417 7.26464 47.049 7.77986 47.0401 8.31396C46.884 17.8639 46.4688 24.8045 45.6616 29.9953C44.8537 35.1897 43.6314 38.7878 41.7555 41.5462C39.8664 44.3238 37.438 46.0636 34.6265 47.7363C33.6878 48.2945 32.7217 48.8382 31.7073 49.4092C29.6123 50.5881 27.3107 51.8831 24.6158 53.6661C23.9432 54.1113 23.0675 54.1113 22.395 53.6661C19.7038 51.8858 17.4067 50.5922 15.3157 49.415C14.2982 48.8419 13.3295 48.2965 12.388 47.7356C9.57886 46.0626 7.15389 44.3228 5.26876 41.5442C3.39723 38.7861 2.17906 35.188 1.37412 29.9943C0.569727 24.8038 0.156523 17.8636 0.000266769 8.31396C-0.00849366 7.77986 0.198824 7.26464 0.575625 6.88387C0.95246 6.5031 1.46728 6.28865 2.00456 6.28865C2.14122 6.28865 2.29253 6.2895 2.45765 6.29041C5.75665 6.3085 14.5665 6.35683 22.2777 0.417479ZM4.0468 10.2748C4.2259 18.7228 4.63051 24.8322 5.33649 29.3874C6.09719 34.2957 7.18627 37.2427 8.59237 39.3153C9.98518 41.368 11.8085 42.7443 14.4482 44.3164C15.2506 44.7943 16.1451 45.2985 17.12 45.848C18.9829 46.8979 21.1385 48.1133 23.5052 49.6259C25.877 48.1102 28.0368 46.8939 29.9031 45.8426C30.8749 45.2951 31.7669 44.7926 32.568 44.316C35.2108 42.7436 37.0382 41.3666 38.4344 39.3136C39.8439 37.241 40.9361 34.294 41.6993 29.3864C42.408 24.8315 42.8143 18.7224 42.9936 10.275C38.9076 10.2165 30.9144 9.59821 23.5052 4.46545C16.1038 9.59288 8.12095 10.2152 4.0468 10.2748Z" fill="#828282"/>
<path d="M64.731 15.3377H60.5782V26.2838H57.7851V15.3377H53.6881V13.1448H64.731V15.3377ZM71.3515 21.4741H69.1259V26.2838H66.3325V13.1448H71.3699C72.9713 13.1448 74.2066 13.4908 75.0759 14.1826C75.9447 14.8744 76.3793 15.852 76.3793 17.1154C76.3793 18.0118 76.1776 18.7609 75.774 19.3623C75.3768 19.958 74.7718 20.4332 73.9585 20.7883L76.8913 26.1576V26.2838H73.8934L71.3515 21.4741ZM69.1259 19.2813H71.3791C72.0809 19.2813 72.624 19.1096 73.0088 18.767C73.3936 18.4179 73.5862 17.9396 73.5862 17.332C73.5862 16.7124 73.4028 16.225 73.0368 15.8701C72.6768 15.5152 72.1212 15.3377 71.3699 15.3377H69.1259V19.2813ZM88.7728 13.1448V21.7987C88.7728 23.2368 88.3068 24.3739 87.3759 25.2099C86.4511 26.0462 85.1848 26.4643 83.5769 26.4643C81.9942 26.4643 80.7371 26.0583 79.8058 25.246C78.8749 24.4339 78.4 23.3178 78.381 21.8983V13.1448H81.1747V21.817C81.1747 22.6773 81.3857 23.306 81.8077 23.7029C82.2362 24.0941 82.8256 24.2895 83.5769 24.2895C85.1473 24.2895 85.9449 23.4893 85.9698 21.8892V13.1448H88.7728ZM98.0929 22.8366C98.0929 22.3253 97.9068 21.9344 97.5343 21.6634C97.162 21.3867 96.4915 21.0981 95.5231 20.7974C94.5547 20.4903 93.7881 20.1896 93.2232 19.8949C91.6835 19.0886 90.9142 18.0028 90.9142 16.6372C90.9142 15.9272 91.1187 15.2956 91.5288 14.7421C91.9443 14.1826 92.5374 13.7464 93.3071 13.4336C94.0829 13.1208 94.9518 12.9644 95.9141 12.9644C96.8825 12.9644 97.7453 13.1358 98.5027 13.4787C99.2598 13.8156 99.8464 14.2939 100.263 14.9136C100.685 15.5332 100.896 16.2371 100.896 17.0252H98.1021C98.1021 16.4236 97.9068 15.9573 97.5155 15.6265C97.1245 15.2896 96.5754 15.1211 95.8677 15.1211C95.1846 15.1211 94.6539 15.2625 94.2752 15.5452C93.8965 15.822 93.7073 16.189 93.7073 16.6462C93.7073 17.0733 93.9278 17.4313 94.3686 17.72C94.8155 18.0088 95.4703 18.2795 96.333 18.5322C97.9222 18.9955 99.0798 19.5699 99.8062 20.2557C100.532 20.9415 100.896 21.7957 100.896 22.8187C100.896 23.9557 100.452 24.8491 99.5642 25.4988C98.6765 26.1424 97.4818 26.4643 95.9792 26.4643C94.9365 26.4643 93.9868 26.2807 93.1298 25.9139C92.2736 25.5409 91.6188 25.0327 91.1654 24.3887C90.7185 23.7451 90.4952 22.9992 90.4952 22.1508H93.2975C93.2975 23.6007 94.1917 24.3256 95.9792 24.3256C96.6436 24.3256 97.162 24.1963 97.5343 23.9375C97.9068 23.6729 98.0929 23.306 98.0929 22.8366ZM113 15.3377H108.847V26.2838H106.054V15.3377H101.957V13.1448H113V15.3377Z" fill="#828282"/>
<path d="M58.6485 38.7831L58.9761 40.4075L59.3773 38.855L61.6806 31.1448H62.4898L64.7638 38.855L65.1575 40.4216L65.5072 38.7831L67.4243 31.1448H68.3429L65.6241 41.6073H64.7638L62.3582 33.4226L62.0886 32.3881L61.8265 33.4226L59.3626 41.6073H58.5023L55.791 31.1448H56.7093L58.6485 38.7831ZM75.4791 38.6754H70.6609L69.5677 41.6073H68.6269L72.6437 31.1448H73.4962L77.5127 41.6073H76.5798L75.4791 38.6754ZM70.938 37.9211H75.1945L73.0664 32.2228L70.938 37.9211ZM79.9837 40.8601H85.2247V41.6073H79.0797V31.1448H79.9837V40.8601ZM87.8562 40.8601H93.0968V41.6073H86.9522V31.1448H87.8562V40.8601ZM100.685 36.5917H95.7208V40.8601H101.429V41.6073H94.8247V31.1448H101.392V31.8994H95.7208V35.8445H100.685V36.5917ZM110.671 31.8994H107.034V41.6073H106.137V31.8994H102.507V31.1448H110.671V31.8994Z" fill="#828282"/>
</svg>
