<svg width="133" height="82" viewBox="0 0 133 82" fill="none" xmlns="http://www.w3.org/2000/svg">
<path d="M46.3517 14.0284C46.1292 13.4035 46.0044 12.7298 46.0044 12.0255C46.0044 9.05417 48.0061 6.37997 51.634 6.37997C52.3983 6.37997 53.0855 6.5047 53.7017 6.71991C54.3608 6.21001 55.0358 5.72091 55.7254 5.25137C54.5198 4.55684 53.1209 4.15701 51.634 4.15701C47.2064 4.15701 43.5381 7.70057 43.5381 12.0255C43.5381 13.5931 43.982 15.0249 44.7487 16.2269C44.9309 15.9603 45.1094 15.6926 45.2977 15.4309C45.6388 14.954 45.9922 14.4881 46.3517 14.0284Z" fill="#828282"/>
<path d="M57.1022 6.24548C56.4664 6.66734 55.8452 7.10632 55.2351 7.56119C56.5593 8.61888 57.2649 10.2684 57.2649 12.0255C57.2649 15.1179 54.9759 17.671 51.634 17.671C49.7412 17.671 48.1871 16.8505 47.1942 15.5764C47.0034 15.8295 46.8102 16.0814 46.6256 16.3394C46.3432 16.7331 46.0692 17.1317 45.8027 17.534C47.2761 19.005 49.3438 19.8952 51.634 19.8952C56.1032 19.8952 59.7312 16.5118 59.7312 12.0255C59.7312 9.74747 58.7126 7.68712 57.1022 6.24548Z" fill="#828282"/>
<path d="M42.8302 32.5104C42.8302 34.8911 41.4717 36.9466 39.3233 37.7695C39.3098 38.2024 39.2988 38.6352 39.2988 39.0705C39.2988 39.4202 39.3037 39.7687 39.3135 40.1172C42.758 39.2417 45.2977 36.2631 45.2977 32.5104C45.2977 29.758 43.8096 27.3222 41.5866 25.9148C41.3262 26.6375 41.0902 27.3675 40.8737 28.1036C42.1515 29.1637 42.8302 30.7851 42.8302 32.5104Z" fill="#828282"/>
<path d="M37.6945 38.1327C37.5319 38.1449 37.3693 38.1559 37.2006 38.1559C33.8588 38.1559 31.571 35.6028 31.571 32.5104C31.571 29.5391 33.5726 26.8649 37.2006 26.8649C38.0345 26.8649 38.7791 27.0117 39.4358 27.266C39.6497 26.5666 39.876 25.8708 40.1266 25.1824C39.2169 24.8351 38.2289 24.6407 37.2006 24.6407C32.7729 24.6407 29.1034 28.1855 29.1034 32.5104C29.1034 36.9967 32.7314 40.3801 37.2006 40.3801C37.3681 40.3801 37.5344 40.374 37.6994 40.3642C37.686 39.9338 37.6774 39.5034 37.6774 39.0705C37.6774 38.7575 37.6884 38.4457 37.6945 38.1327Z" fill="#828282"/>
<path d="M43.0123 47.4464C46.6415 47.4464 48.6419 50.1194 48.6419 53.0919C48.6419 55.694 47.0169 57.9084 44.5114 58.5467C44.8978 59.2143 45.3075 59.871 45.7354 60.5178C48.8657 59.4626 51.1095 56.6184 51.1095 53.0919C51.1095 48.7658 47.44 45.2223 43.0123 45.2223C41.9082 45.2223 40.8505 45.4424 39.8857 45.841C40.0141 46.5795 40.1658 47.3132 40.3369 48.0395C41.0951 47.6653 41.9865 47.4464 43.0123 47.4464Z" fill="#828282"/>
<path d="M37.3828 53.0919C37.3828 51.5647 37.9146 50.1194 38.921 49.0715C38.718 48.273 38.5419 47.466 38.3879 46.6529C36.2982 48.0799 34.9164 50.4385 34.9164 53.0919C34.9164 57.577 38.5444 60.9616 43.0123 60.9616C43.367 60.9616 43.7154 60.9372 44.0578 60.8956C43.6017 60.184 43.1689 59.4601 42.7605 58.7252C39.558 58.598 37.3828 56.1048 37.3828 53.0919Z" fill="#828282"/>
<path d="M82.3266 45.5671V54.6754C82.3266 56.7835 81.6357 58.7375 78.9298 58.7375C76.225 58.7375 75.5342 56.7835 75.5342 54.6754V45.5671H73.0483V55.112C73.0483 58.4354 75.1588 60.9788 78.9298 60.9788C82.7008 60.9788 84.8112 58.4354 84.8112 55.112V45.5671H82.3266Z" fill="#828282"/>
<path d="M84.3075 17.4521H91.095V19.5711H81.8399V4.47247H84.3075V17.4521Z" fill="#828282"/>
<path d="M0.740234 24.9941H9.58202V27.1779H3.20776V30.7435H9.39861V32.9274H3.20776V37.9089H9.58202V40.0928H0.740234V24.9941Z" fill="#828282"/>
<path d="M50.4406 24.2079L60.8268 34.8288V24.9941H63.2931V40.6931L52.9069 30.1382V40.0928H50.4406V24.2079Z" fill="#828282"/>
<path d="M114.842 40.0928H112.375V24.9941H114.842V40.0928Z" fill="#828282"/>
<path d="M25.0487 47.7277V51.3128H30.4191V53.4967H25.0487V60.6413H22.5824V45.5438H30.6037V47.7277H25.0487Z" fill="#828282"/>
<path d="M35.0436 13.9122H35.084L37.4952 4.46759H39.9567L35.7198 20.207L30.4106 8.84018L25.1013 20.207L20.8645 4.46759H23.3246L25.7372 13.9122H25.7775L30.4106 4.14722L35.0436 13.9122Z" fill="#828282"/>
<path d="M92.7714 30.6481H92.7311L90.3186 40.0928H87.8584L92.0952 24.3534L97.4045 35.7202L102.714 24.3534L106.951 40.0928H104.489L102.078 30.6481H102.036L97.4045 40.4131L92.7714 30.6481Z" fill="#828282"/>
<path d="M94.1226 51.2138H94.0822L91.6697 60.6572H89.2095L93.4464 44.919L98.7556 56.2858L104.064 44.9178L108.302 60.6572H105.84L103.429 51.2126H103.387L98.7556 60.9775L94.1226 51.2138Z" fill="#828282"/>
<path d="M58.9083 52.2996H60.0638C62.0312 52.2996 64.3654 52.3351 64.3654 49.9311C64.3654 47.5687 61.8673 47.6237 59.961 47.6237H58.9083V52.2996ZM60.5333 45.5463C61.9077 45.5463 63.5181 45.5658 64.7482 46.2469C66.0394 46.9879 66.778 48.41 66.778 49.8516C66.778 52.0135 65.3021 53.8158 63.0669 54.0763L67.9457 60.645H65.1358L60.5859 54.2572H58.9083V60.645H56.4407V45.5463H60.5333Z" fill="#828282"/>
<path d="M67.3808 11.2221H68.5351C70.5037 11.2221 72.838 11.2576 72.838 8.85486C72.838 6.49248 70.3399 6.54752 68.4336 6.54752H67.3808V11.2221ZM69.0058 4.47003C70.379 4.47003 71.9906 4.4896 73.2207 5.17068C74.5119 5.91167 75.2493 7.3325 75.2493 8.77414C75.2493 10.9372 73.7734 12.7395 71.5394 13L76.4182 19.5675H73.6083L69.0572 13.1798H67.3808V19.5675H64.9132V4.47003H69.0058Z" fill="#828282"/>
<path d="M95.4958 4.47247H99.6385C104.374 4.47247 108.309 6.80917 108.309 11.9411C108.309 17.1709 104.456 19.5711 99.5773 19.5711H95.4958V4.47247ZM97.9645 17.4398H99.4086C102.716 17.4398 105.84 16.244 105.84 11.9313C105.84 7.61866 102.716 6.54752 99.4086 6.54752H97.9645V17.4398Z" fill="#828282"/>
<path d="M131.359 37.5005C130.566 37.926 129.638 38.1693 128.608 38.1693C125.268 38.1693 122.979 35.6162 122.979 32.5239C122.979 29.5513 124.98 26.8784 128.608 26.8784C129.674 26.8784 130.599 27.1107 131.374 27.5117L132.626 25.7082C131.438 25.0393 130.064 24.6542 128.608 24.6542C124.181 24.6542 120.511 28.1977 120.511 32.5239C120.511 37.009 124.139 40.3936 128.608 40.3936C130.085 40.3936 131.468 40.0219 132.662 39.3652L131.359 37.5005Z" fill="#828282"/>
<path d="M25.1441 37.5005C24.3518 37.926 23.4225 38.1693 22.3929 38.1693C19.0523 38.1693 16.7633 35.6162 16.7633 32.5239C16.7633 29.5513 18.765 26.8784 22.3929 26.8784C23.4591 26.8784 24.3836 27.1107 25.1588 27.5117L26.4109 25.7082C25.2224 25.0393 23.8492 24.6542 22.3929 24.6542C17.9653 24.6542 14.2958 28.1977 14.2958 32.5239C14.2958 37.009 17.9249 40.3936 22.3929 40.3936C23.87 40.3936 25.2542 40.0219 26.4464 39.3652L25.1441 37.5005Z" fill="#828282"/>
<path d="M84.665 32.524C84.665 37.0091 81.0358 40.3937 76.5678 40.3937C72.0986 40.3937 68.4707 37.0091 68.4707 32.524C68.4707 28.1979 72.1402 24.6543 76.5678 24.6543C80.9955 24.6543 84.665 28.1979 84.665 32.524ZM82.1974 32.524C82.1974 29.5514 80.1958 26.8785 76.5678 26.8785C72.9399 26.8785 70.9382 29.5514 70.9382 32.524C70.9382 35.6164 73.226 38.1695 76.5678 38.1695C79.9084 38.1695 82.1974 35.6164 82.1974 32.524Z" fill="#828282"/>
<path d="M106.748 70.5567C99.2252 76.6827 89.7121 80.0514 79.8933 80.0514C69.8495 80.0514 60.1335 76.5299 52.5328 70.136L51.288 71.5471C59.2347 78.232 69.3934 81.9137 79.8933 81.9137C90.1669 81.9137 100.12 78.3872 107.988 71.9714L106.748 70.5567Z" fill="#828282"/>
<path d="M106.393 70.1519C98.9696 76.1961 89.5825 79.5195 79.8933 79.5195C68.8334 79.5195 58.4363 75.312 50.6155 67.6721C42.7947 60.0323 38.4881 49.8749 38.4881 39.0705C38.4881 30.7178 41.0718 22.7002 45.9617 15.8845C50.7414 9.22169 57.3627 4.17046 65.1101 1.27618L64.813 0.515625C56.909 3.46738 50.1545 8.62009 45.2781 15.4174C40.2905 22.3713 37.653 30.5503 37.653 39.0705C37.653 50.0925 42.0476 60.4542 50.0261 68.2481C58.0034 76.042 68.6109 80.3339 79.8933 80.3339C89.7818 80.3339 99.3621 76.9419 106.937 70.7694L106.393 70.1519Z" fill="#828282"/>
</svg>
